<svg preserveAspectRatio="none" width="100%" height="100%" overflow="visible" style="display: block;" viewBox="0 0 13.9736 11.3076" fill="none" xmlns="http://www.w3.org/2000/svg">
<path id="Vector" d="M12.207 0C12.6993 0 13.1172 0.171871 13.46 0.514648C13.8025 0.857354 13.9736 1.27455 13.9736 1.7666V4.08301C13.9736 4.20495 13.9367 4.30721 13.8623 4.38965C13.7876 4.47232 13.6886 4.52465 13.5664 4.54688C13.3062 4.61689 13.0867 4.75147 12.9082 4.9502C12.7298 5.149 12.6407 5.38347 12.6406 5.65332C12.6406 5.9171 12.7298 6.14888 12.9082 6.34766C13.0867 6.54633 13.3062 6.68341 13.5664 6.75977C13.6886 6.78199 13.7876 6.8353 13.8623 6.91797C13.9367 7.00044 13.9736 7.10261 13.9736 7.22461V9.54102C13.9736 10.033 13.8025 10.4503 13.46 10.793C13.1172 11.1357 12.6993 11.3076 12.207 11.3076H4.98633V8.98633C4.98598 8.61855 4.68814 8.32049 4.32031 8.32031C3.95249 8.32049 3.65367 8.61855 3.65332 8.98633V11.3076H1.7666C1.27448 11.3076 0.857384 11.1356 0.514648 10.793C0.171952 10.4503 8.12868e-05 10.0331 0 9.54102V7.23438C0 7.11215 0.037638 7.00765 0.112305 6.92188C0.186931 6.83629 0.28517 6.78196 0.407227 6.75977C0.667466 6.68346 0.88691 6.54632 1.06543 6.34766C1.24387 6.14888 1.33301 5.9171 1.33301 5.65332C1.33293 5.38347 1.2438 5.149 1.06543 4.9502C0.886906 4.75152 0.667475 4.61685 0.407227 4.54688C0.285076 4.52464 0.18694 4.47051 0.112305 4.38477C0.0376983 4.29902 1.55782e-05 4.19539 0 4.07324V1.7666C1.51023e-05 1.27441 0.171886 0.857411 0.514648 0.514648C0.857411 0.171886 1.27441 1.5139e-05 1.7666 0H3.65332V2.32031C3.6535 2.68824 3.95238 2.98615 4.32031 2.98633C4.68824 2.98615 4.98615 2.68824 4.98633 2.32031V0H12.207ZM4.32031 3.65332C3.95238 3.6535 3.6535 3.95238 3.65332 4.32031V6.98633C3.65332 7.35441 3.95227 7.65314 4.32031 7.65332C4.68835 7.65314 4.98633 7.35441 4.98633 6.98633V4.32031C4.98615 3.95238 4.68824 3.6535 4.32031 3.65332Z" fill="var(--fill-0, #383838)"/>
</svg>
