<svg preserveAspectRatio="none" width="100%" height="100%" overflow="visible" style="display: block;" viewBox="0 0 12.271 12.271" fill="none" xmlns="http://www.w3.org/2000/svg">
<path id="Vector" d="M1.51667 12.271C1.09689 12.271 0.739167 12.1232 0.4435 11.8275C0.147833 11.5318 0 11.1741 0 10.7543V1.51667C0 1.09689 0.147833 0.739166 0.4435 0.4435C0.739167 0.147833 1.09689 0 1.51667 0H5.37717C5.58994 0 5.76956 0.0731664 5.916 0.2195C6.06233 0.365944 6.1355 0.545556 6.1355 0.758333C6.1355 0.971111 6.06233 1.15072 5.916 1.29717C5.76956 1.4435 5.58994 1.51667 5.37717 1.51667H1.51667V10.7543H10.7543V6.89383C10.7543 6.68106 10.8275 6.50144 10.9738 6.355C11.1203 6.20867 11.2999 6.1355 11.5127 6.1355C11.7254 6.1355 11.9051 6.20867 12.0515 6.355C12.1978 6.50144 12.271 6.68106 12.271 6.89383V10.7543C12.271 11.1741 12.1232 11.5318 11.8275 11.8275C11.5318 12.1232 11.1741 12.271 10.7543 12.271H1.51667ZM10.7543 2.5735L5.25217 8.07567C5.11139 8.21656 4.93589 8.28633 4.72567 8.285C4.51556 8.28367 4.34011 8.21256 4.19933 8.07167C4.05844 7.93089 3.988 7.75478 3.988 7.54333C3.988 7.33178 4.05844 7.15561 4.19933 7.01483L9.6975 1.51667H8.22717C8.01439 1.51667 7.83478 1.4435 7.68833 1.29717C7.542 1.15072 7.46883 0.971111 7.46883 0.758333C7.46883 0.545556 7.542 0.365944 7.68833 0.2195C7.83478 0.0731664 8.01439 0 8.22717 0H11.5127C11.7254 0 11.9051 0.0731664 12.0515 0.2195C12.1978 0.365944 12.271 0.545556 12.271 0.758333V4.04383C12.271 4.25661 12.1978 4.43622 12.0515 4.58267C11.9051 4.729 11.7254 4.80217 11.5127 4.80217C11.2999 4.80217 11.1203 4.729 10.9738 4.58267C10.8275 4.43622 10.7543 4.25661 10.7543 4.04383V2.5735Z" fill="var(--fill-0, #383838)"/>
</svg>
