<svg preserveAspectRatio="none" width="100%" height="100%" overflow="visible" style="display: block;" viewBox="0 0 13.946 11.2747" fill="none" xmlns="http://www.w3.org/2000/svg">
<path id="Vector" d="M10.2598 7.55433L12.7932 5.38767L13.2583 5.425C13.4738 5.44722 13.6423 5.53433 13.7638 5.68633C13.8853 5.83822 13.946 6.00389 13.946 6.18333C13.946 6.28556 13.9261 6.38644 13.8862 6.486C13.8462 6.58544 13.7777 6.67383 13.6808 6.75117L12.0592 8.16817L12.5398 10.2627C12.5509 10.2902 12.5572 10.3192 12.5585 10.3497C12.5598 10.3801 12.5605 10.4091 12.5605 10.4367C12.5605 10.6494 12.4846 10.8291 12.3327 10.9755C12.1807 11.1218 12.0038 11.195 11.8022 11.195C11.7387 11.195 11.6724 11.1853 11.6033 11.166C11.5342 11.1467 11.4679 11.1177 11.4043 11.079L11.0225 10.8425L10.2598 7.55433ZM8.6015 2.41667L7.92933 0.847167L8.08733 0.468501C8.15089 0.316612 8.24894 0.200556 8.3815 0.120334C8.51417 0.0401116 8.64956 0 8.78767 0C8.92856 0 9.06461 0.0373339 9.19583 0.112001C9.32717 0.186667 9.42455 0.301278 9.488 0.455834L10.3848 2.57867L8.6015 2.41667ZM3.867 8.925L5.89133 7.70617L7.91567 8.94167L7.3815 6.63333L9.16783 5.08917L6.82217 4.8805L5.89133 2.6975L4.9605 4.86783L2.61483 5.0725L4.40117 6.62933L3.867 8.925ZM1.97717 10.3425L2.7145 7.1805L0.2525 5.05183C0.155722 4.97461 0.0894445 4.88622 0.0536667 4.78667C0.0178889 4.68711 0 4.58628 0 4.48417C0 4.30461 0.0607778 4.13889 0.182333 3.987C0.303778 3.83511 0.472222 3.74806 0.687667 3.72583L3.933 3.4425L5.191 0.459834C5.25456 0.305278 5.35194 0.190667 5.48317 0.116C5.6145 0.0413337 5.75056 0.00400085 5.89133 0.00400085C6.03211 0.00400085 6.16817 0.0413337 6.2995 0.116C6.43072 0.190667 6.52811 0.305278 6.59167 0.459834L7.84967 3.4425L11.095 3.72583C11.3104 3.74806 11.4789 3.83511 11.6003 3.987C11.7219 4.13889 11.7827 4.30461 11.7827 4.48417C11.7827 4.58628 11.7648 4.68711 11.729 4.78667C11.6932 4.88622 11.6269 4.97461 11.5302 5.05183L9.06817 7.1805L9.8055 10.3425C9.81394 10.3678 9.82083 10.4258 9.82617 10.5163C9.82617 10.7291 9.75017 10.9087 9.59817 11.0552C9.44628 11.2015 9.2695 11.2747 9.06783 11.2747C9.02383 11.2747 8.89122 11.2361 8.67 11.1588L5.89133 9.48417L3.11267 11.1588C3.04922 11.1974 2.98294 11.2263 2.91383 11.2457C2.84472 11.265 2.77839 11.2747 2.71483 11.2747C2.48561 11.2747 2.2895 11.1828 2.1265 10.9992C1.96339 10.8155 1.91361 10.5966 1.97717 10.3425Z" fill="var(--fill-0, #383838)"/>
</svg>
