<svg preserveAspectRatio="none" width="100%" height="100%" overflow="visible" style="display: block;" viewBox="0 0 10.9377 11.9297" fill="none" xmlns="http://www.w3.org/2000/svg">
<path id="Vector" d="M1.51667 10.413H3.37717V7.1275C3.37717 6.91472 3.45033 6.73511 3.59667 6.58867C3.74311 6.44233 3.92272 6.36917 4.1355 6.36917H6.80217C7.01494 6.36917 7.19456 6.44233 7.341 6.58867C7.48733 6.73511 7.5605 6.91472 7.5605 7.1275V10.413H9.421V4.48467L5.46883 1.52067L1.51667 4.48467V10.413ZM0 10.413V4.48467C0 4.245 0.0532223 4.01795 0.159667 3.8035C0.266 3.58906 0.414444 3.41145 0.605 3.27067L4.55717 0.3065C4.82506 0.102167 5.12894 0 5.46883 0C5.80872 0 6.11261 0.102167 6.3805 0.3065L10.3327 3.27067C10.5232 3.41145 10.6717 3.58906 10.778 3.8035C10.8844 4.01795 10.9377 4.245 10.9377 4.48467V10.413C10.9377 10.8328 10.7898 11.1905 10.4942 11.4862C10.1985 11.7818 9.84078 11.9297 9.421 11.9297H6.862C6.64911 11.9297 6.4695 11.8565 6.32317 11.7102C6.17683 11.5637 6.10367 11.3841 6.10367 11.1713V7.826H4.834V11.1713C4.834 11.3841 4.76083 11.5637 4.6145 11.7102C4.46817 11.8565 4.28856 11.9297 4.07567 11.9297H1.51667C1.09689 11.9297 0.739167 11.7818 0.4435 11.4862C0.147833 11.1905 0 10.8328 0 10.413Z" fill="var(--fill-0, #383838)"/>
</svg>
