<svg preserveAspectRatio="none" width="100%" height="100%" overflow="visible" style="display: block;" viewBox="0 0 4.8 7.86667" fill="none" xmlns="http://www.w3.org/2000/svg">
<path id="Vector" d="M2.6985 3.93333L0.249333 1.484C0.083111 1.31789 0 1.11211 0 0.866667C0 0.621222 0.083111 0.415445 0.249333 0.249334C0.415444 0.0831115 0.621222 0 0.866667 0C1.11211 0 1.31789 0.0831115 1.484 0.249334L4.54133 3.3065C4.62678 3.39206 4.69128 3.48939 4.73483 3.5985C4.77828 3.70772 4.8 3.81933 4.8 3.93333C4.8 4.04733 4.77828 4.15894 4.73483 4.26817C4.69128 4.37728 4.62678 4.47461 4.54133 4.56017L1.484 7.61733C1.31789 7.78356 1.11211 7.86667 0.866667 7.86667C0.621222 7.86667 0.415444 7.78356 0.249333 7.61733C0.083111 7.45122 0 7.24544 0 7C0 6.75456 0.083111 6.54878 0.249333 6.38267L2.6985 3.93333Z" fill="var(--fill-0, #383838)"/>
</svg>
