<svg preserveAspectRatio="none" width="100%" height="100%" overflow="visible" style="display: block;" viewBox="0 0 11.8 7.211" fill="none" xmlns="http://www.w3.org/2000/svg">
<path id="Vector" d="M5.9 3.16325L2.226 6.837C1.97683 7.08633 1.66817 7.211 1.3 7.211C0.931833 7.211 0.623166 7.08633 0.374 6.837C0.124666 6.58783 0 6.27917 0 5.911C0 5.54283 0.124666 5.23417 0.374 4.985L4.95975 0.399001C5.22575 0.133001 5.53917 0 5.9 0C6.26083 0 6.57425 0.133001 6.84025 0.399001L11.426 4.985C11.6753 5.23417 11.8 5.54283 11.8 5.911C11.8 6.27917 11.6753 6.58783 11.426 6.837C11.1768 7.08633 10.8682 7.211 10.5 7.211C10.1318 7.211 9.82317 7.08633 9.574 6.837L5.9 3.16325Z" fill="var(--fill-0, #0069D6)"/>
</svg>
