<svg preserveAspectRatio="none" width="100%" height="100%" overflow="visible" style="display: block;" viewBox="0 0 18 18" fill="none" xmlns="http://www.w3.org/2000/svg">
<path id="indeterminate_check_box" d="M4 9C4 9.55228 4.44772 10 5 10H13C13.5523 10 14 9.55228 14 9C14 8.44772 13.5523 8 13 8H5C4.44772 8 4 8.44772 4 9ZM2 18C1.45 18 0.979167 17.8042 0.5875 17.4125C0.195833 17.0208 0 16.55 0 16V2C0 1.45 0.195833 0.979167 0.5875 0.5875C0.979167 0.195833 1.45 0 2 0H16C16.55 0 17.0208 0.195833 17.4125 0.5875C17.8042 0.979167 18 1.45 18 2V16C18 16.55 17.8042 17.0208 17.4125 17.4125C17.0208 17.8042 16.55 18 16 18H2Z" fill="var(--fill-0, #AAAAAA)"/>
</svg>
