<svg preserveAspectRatio="none" width="100%" height="100%" overflow="visible" style="display: block;" viewBox="0 0 18 18" fill="none" xmlns="http://www.w3.org/2000/svg">
<g id="Vector">
<path d="M2 18C1.45 18 0.979167 17.8042 0.5875 17.4125C0.195833 17.0208 0 16.55 0 16V2C0 1.45 0.195833 0.979167 0.5875 0.5875C0.979167 0.195833 1.45 0 2 0H16C16.55 0 17.0208 0.195833 17.4125 0.5875C17.8042 0.979167 18 1.45 18 2V16C18 16.55 17.8042 17.0208 17.4125 17.4125C17.0208 17.8042 16.55 18 16 18H2Z" fill="#0069D6"/>
<path d="M13.9086 6.86644C14.2959 6.47266 14.2906 5.83951 13.8968 5.45228C13.503 5.06504 12.8699 5.07034 12.4826 5.46413L7.61773 10.4112L5.51452 8.28985C5.12568 7.89764 4.49253 7.89492 4.10032 8.28376C3.70812 8.67259 3.70539 9.30575 4.09423 9.69796L6.89338 12.5213C6.90182 12.5302 6.91044 12.539 6.91927 12.5477C7.31305 12.935 7.94619 12.9297 8.33343 12.5359L13.9086 6.86644Z" fill="var(--fill-0, white)"/>
</g>
</svg>
