<svg preserveAspectRatio="none" width="100%" height="100%" overflow="visible" style="display: block;" viewBox="0 0 12.65 13.974" fill="none" xmlns="http://www.w3.org/2000/svg">
<path id="Vector" d="M2.43333 13.974C1.75744 13.974 1.18294 13.7374 0.709833 13.2642C0.236611 12.7911 0 12.2166 0 11.5407V10.8552C0 10.3754 0.168222 9.96728 0.504667 9.63083C0.841222 9.29439 1.24933 9.12617 1.729 9.12617H2.01883V1.76667C2.01883 1.27444 2.19022 0.856944 2.533 0.514166C2.87578 0.171388 3.29328 0 3.7855 0H10.8833C11.3757 0 11.7932 0.171388 12.136 0.514166C12.4787 0.856944 12.65 1.27444 12.65 1.76667V11.5407C12.65 12.2166 12.4134 12.7911 11.9403 13.2642C11.4672 13.7374 10.8927 13.974 10.2167 13.974H2.43333ZM10.2167 12.2073C10.4056 12.2073 10.5639 12.1434 10.6917 12.0157C10.8194 11.8879 10.8833 11.7296 10.8833 11.5407V1.76667H3.7855V9.12617H7.78333C8.27567 9.12617 8.69317 9.2975 9.03583 9.64017C9.37861 9.98294 9.55 10.4005 9.55 10.8928V11.5407C9.55 11.7296 9.61389 11.8879 9.74167 12.0157C9.86944 12.1434 10.0278 12.2073 10.2167 12.2073ZM5.24133 4.96817C5.02111 4.96817 4.8345 4.89172 4.6815 4.73883C4.52861 4.58594 4.45217 4.39933 4.45217 4.179C4.45217 3.95878 4.52861 3.77217 4.6815 3.61917C4.8345 3.46628 5.02111 3.38983 5.24133 3.38983H9.4275C9.64783 3.38983 9.83444 3.46628 9.98733 3.61917C10.1402 3.77217 10.2167 3.95878 10.2167 4.179C10.2167 4.39933 10.1402 4.58594 9.98733 4.73883C9.83444 4.89172 9.64783 4.96817 9.4275 4.96817H5.24133ZM5.24133 7.21317C5.02111 7.21317 4.8345 7.13667 4.6815 6.98367C4.52861 6.83078 4.45217 6.64422 4.45217 6.424C4.45217 6.20367 4.52861 6.01706 4.6815 5.86417C4.8345 5.71128 5.02111 5.63483 5.24133 5.63483H9.4275C9.64783 5.63483 9.83444 5.71128 9.98733 5.86417C10.1402 6.01706 10.2167 6.20367 10.2167 6.424C10.2167 6.64422 10.1402 6.83078 9.98733 6.98367C9.83444 7.13667 9.64783 7.21317 9.4275 7.21317H5.24133Z" fill="var(--fill-0, #383838)"/>
</svg>
