<svg preserveAspectRatio="none" width="100%" height="100%" overflow="visible" style="display: block;" viewBox="0 0 13.3333 13.3333" fill="none" xmlns="http://www.w3.org/2000/svg">
<path id="Vector" d="M2.79964 9.77593C3.34033 9.37445 3.93864 9.06043 4.59457 8.83387C5.25049 8.60731 5.94119 8.49403 6.66667 8.49403C7.39214 8.49403 8.08735 8.61181 8.75229 8.84738C9.41723 9.08295 10.011 9.39549 10.5337 9.785C10.8868 9.34428 11.1608 8.86477 11.3555 8.34645C11.5503 7.82814 11.6477 7.26821 11.6477 6.66667C11.6477 5.29258 11.161 4.11892 10.1877 3.14568C9.21442 2.17234 8.04075 1.68567 6.66667 1.68567C5.29258 1.68567 4.11892 2.17234 3.14568 3.14568C2.17234 4.11892 1.68567 5.29258 1.68567 6.66667C1.68567 7.26216 1.78156 7.81907 1.97335 8.33739C2.16513 8.85581 2.44056 9.33533 2.79964 9.77593ZM6.66667 7.38371C6.01721 7.38371 5.4718 7.16452 5.03045 6.72614C4.5891 6.28776 4.36843 5.74384 4.36843 5.09438C4.36843 4.44492 4.5891 3.89952 5.03045 3.45817C5.4718 3.01682 6.01721 2.79614 6.66667 2.79614C7.31613 2.79614 7.86153 3.01682 8.30288 3.45817C8.74423 3.89952 8.9649 4.44492 8.9649 5.09438C8.9649 5.74384 8.74423 6.28776 8.30288 6.72614C7.86153 7.16452 7.31613 7.38371 6.66667 7.38371ZM6.66667 13.3333C5.74474 13.3333 4.87885 13.1589 4.06899 12.81C3.25912 12.461 2.55294 11.9853 1.95045 11.3829C1.34806 10.7804 0.872361 10.0742 0.523353 9.26435C0.174451 8.45448 0 7.58859 0 6.66667C0 5.74474 0.174451 4.87885 0.523353 4.06899C0.872361 3.25912 1.34806 2.55294 1.95045 1.95045C2.55294 1.34806 3.25912 0.87236 4.06899 0.523353C4.87885 0.174451 5.74474 0 6.66667 0C7.58859 0 8.45448 0.174451 9.26435 0.523353C10.0742 0.87236 10.7804 1.34806 11.3829 1.95045C11.9853 2.55294 12.461 3.25912 12.81 4.06899C13.1589 4.87885 13.3333 5.74474 13.3333 6.66667C13.3333 7.58859 13.1589 8.45448 12.81 9.26435C12.461 10.0742 11.9853 10.7804 11.3829 11.3829C10.7804 11.9853 10.0742 12.461 9.26435 12.81C8.45448 13.1589 7.58859 13.3333 6.66667 13.3333Z" fill="var(--fill-0, #383838)"/>
</svg>
